<svg xmlns="http://www.w3.org/2000/svg" width="48" height="48" viewBox="0 0 3000 3000">
 <g fill="#ffb36d" stroke="#737373" stroke-linejoin="round" stroke-width="34.375">
  <path stroke-width="53.5167" d="M604.204 595.105c-276.177 174.858-320.971 547.519-321.748 931.684-.942 465.085-11.63 611.135 296.574 888.173-72.901-316.895-48.652-587.929-41.828-797.31l136.89-3.44c12.99 346.192 37.966 610.03 37.698 918.838 46.455 70.046 250.586 187.538 347.66 187.51-35.306-1193.181 5.204-1784 27.533-2459.343-111.51 49.47-216.522 94.781-350.766 203.441-30.628 258.951-40.522 367.364-51.619 551.352l-1.611 355.746-133.018 1.154c-10.283-258.038 3.7-520.814 54.235-777.805zm642.703-363.638c347.83-96.048 672.141-28.954 977.254 171.338l-2.282 396.171c-230.782-64.083-388.69-53.543-475.339-9.72-.142 469.887-15.651 968.163 12.828 1428.881 65.59 4.753 129.53 4.988 194.568-3.254 82.117-110.888 162.88-233.295 241.27-375.854 127.205 51.63 247.312 116.356 350.35 212.598-14.344 68.155-176.316 302.11-338.298 563.849-312.316 223.548-833.945 234.527-993.037 161.056-18.721-834.195 4.757-1698.116 32.687-2545.065z" transform="translate(-53.565 -3.04)"/>
  <path stroke-width="53.083" d="M2539.048 695.722c-128.187 170.43-414.721 465.827-187.486 620.36 181.191 104.97-20.737 258.207-57.715 426.576 100.77 40.647 259.936 127.838 355.72 210.729 130.602-311.104 271.735-523.075 86.787-667.476-62.552-53.324-81.52-110.635 17.98-219.467-44.051-130.853-135.633-263.132-215.286-370.722z" transform="translate(-53.565 -3.04)"/>
  <path fill="#fffaba" stroke-linejoin="miter" stroke-width="44.0127" d="M1832.098 1153.837c-136.883 0-247.851 110.968-247.851 247.852 0 136.883 110.968 247.845 247.85 247.845 136.884 0 247.847-110.962 247.847-247.845 0-136.884-110.963-247.852-247.846-247.852zm0 0" transform="translate(-53.565 -3.04)"/>
 </g>
</svg>
