<svg xmlns="http://www.w3.org/2000/svg" width="48" height="48" viewBox="0 0 3000 3000">
 <path fill="#747274" d="M2758.748 2202.353c-35.853 33.98-77.29 55.561-125.055 63.687-81.925 13.941-153.824-7.587-215.236-63.575-6.884-6.279-12.737-13.682-19.149-20.488a1121 1121 0 0 0-16.044-16.664 1777 1777 0 0 0-17.159-17.294c-1.665-1.676-3.485-3.209-4.96-4.548-3.399.608-2.996 3.062-3.523 4.816-.585 1.936-.901 3.96-1.204 5.963-4.13 26.678-11.499 52.435-22.536 77.066-22.18 49.506-57.036 87.537-104.137 114.406-35.758 20.4-74.328 32.71-114.6 40.125-37.704 6.942-75.755 9.698-114.094 9.698-43.993 0-87.739-3.14-131.32-8.932-12.08-1.61-24.178-3.062-36.475-4.615-4.085 3.016-6.164 7.55-8.777 11.568-17.553 26.97-36.343 53.018-56.753 77.896-28.502 34.71-59.816 66.53-96.282 93.007-32.247 23.427-67.086 41.554-106.036 50.88-52.254 12.513-103.336 7.752-153.364-11.219-40.358-15.312-76.41-37.907-110.042-64.629-39.01-30.987-73.687-66.42-105.922-104.292-11.591-13.639-22.63-27.747-33.903-41.654-2.8-3.465-5.534-6.988-8.757-11.061-4.678.438-9.505.561-14.218 1.37-28.885 4.987-57.992 8.138-87.134 10.938-10.522 1.014-21.108 1.316-31.685 1.61-17.058.484-34.15 1.34-51.197.899-57.249-1.45-113.45-8.987-167.078-30.524-66.115-26.555-116.14-70.877-148.556-134.55-8.866-17.426-15.966-35.622-21.523-54.39-1.238-4.177-1.814-8.708-5.242-12.781-7.282 5.219-12.962 11.34-18.107 18.069-12.645 16.562-27.018 31.495-43.35 44.457-35.545 28.208-75.794 45.387-120.882 51.306-48.066 6.311-94.107-.45-137.945-21.096-51.937-24.44-90.71-62.572-116.312-113.893-15.445-30.985-23.536-63.851-24.965-98.564-1.688-41.07 5.536-80.249 23.59-117.107 7.677-15.664 16.612-30.787 25.95-45.537 27.838-43.985 55.89-87.843 84.398-131.386 25.406-38.82 52.741-76.321 81.05-113.081 2.7-3.523 5.254-7.155 7.561-10.295-2.794-12.671-5.694-24.495-7.967-36.444-5.997-31.417-6.357-63-2.644-94.729 5.795-49.498 21.747-95.833 43.477-140.344 25.475-52.185 57.687-100.096 94.278-145.002 20.027-24.585 41.27-48.179 62.333-71.896 4.076-4.58 6.158-8.843 6.27-15.036.438-24.38.934-48.787 2.35-73.124 3.535-60.714 12.692-120.53 31.427-178.576 15.617-48.383 37.604-93.549 69.603-133.434 36.795-45.863 83.006-78.674 137.925-99.333 38.367-14.434 78.146-22.13 118.977-25.034 22.335-1.575 44.635-2.62 67.013-1.362 27.612 1.54 55.19 3.534 82.546 7.786 15.66 2.442 31.253 5.357 46.893 7.99 2.377.392 4.808.403 7.654.62 2.275-2.838 4.649-5.56 6.775-8.475 23.694-32.618 48.866-64.044 76.297-93.603 36.973-39.831 77.234-75.756 124.084-103.754 32.348-19.34 66.588-33.955 103.783-41.306 51.278-10.113 101.17-5.3 149.832 13.314 36.424 13.93 69.218 34.116 99.805 58.104 34.407 26.981 64.753 58.113 93.163 91.207 19.624 22.85 37.829 46.839 55.19 71.458 3.024 4.3 6.163 8.518 9.485 13.098 3.421-.291 6.65-.291 9.779-.876 37.22-7.023 74.756-11.603 112.585-13.345 47.718-2.195 95.121.45 141.793 11.499 42.015 9.946 81.137 26.442 116.22 51.905 30.675 22.266 55.786 49.688 76.073 81.632 25.824 40.652 42.263 85.106 52.906 131.836 8.137 35.77 12.726 72.023 15.237 108.613 2.486 36.173 1.82 72.337 1.181 108.524-.124 7.279-.921 14.546-1.42 22.007 4.39 4.591 8.486 9.082 12.807 13.356 30.976 30.617 60.524 62.55 87.998 96.372 31.109 38.301 59.412 78.515 82.42 122.26 21.728 41.318 38.178 84.501 45.12 130.894 3.687 24.628 4.646 49.383 1.63 74.195-.247 2.013-.302 4.061-.639 6.063-.8 4.793.778 8.44 4.162 12.04 11.128 11.86 21.964 24 32.8 36.141 31.167 34.935 60.184 71.617 89.07 108.444 14.379 18.328 25.9 38.356 38.503 57.767.224.337.472.674.627 1.046 7.26 16.292 15.9 31.987 21.36 49.068 4.948 15.494 9.9 30.988 14.626 46.548 4.735 15.607 8.022 31.518 9.203 47.845.383 5.265 1.267 10.485 1.867 15.741 1.621 14.132 3.024 28.206 2.151 42.553-.72 11.735.674 23.574.628 35.364-.167 44.604-12.253 85.875-35.216 124.03-11.176 18.564-24.553 35.374-41.047 50.767M806.464 2320.17c1.094.542 2.16 1.124 3.275 1.622 50.71 22.615 104.474 30.052 159.323 31.492 15.831.418 31.697-.415 47.54-.899 31.765-.956 63.254-4.695 94.663-9.303a1213 1213 0 0 0 45.747-7.585c9.361-1.757 16.833.853 22.986 7.818 1.88 2.128 3.543 4.456 5.3 6.697 12.346 15.66 24.397 31.55 37.066 46.951 31.584 38.394 65.596 74.454 104.428 105.713 27.352 22.041 56.393 41.418 88.798 55.345 26.385 11.355 53.836 18.68 82.577 19.918 31.797 1.371 62.313-4.94 91.532-17.464 37.953-16.26 70.269-40.686 99.658-69.246 28.096-27.315 52.995-57.37 75.33-89.516 12.3-17.7 24.138-35.735 35.714-53.92 6.47-10.147 14.976-14.142 26.789-12.4 22.928 3.376 45.885 6.629 68.863 9.598 35.127 4.523 70.435 6.683 105.833 6.798 31.752.101 63.393-2.005 94.773-7.19 35.928-5.93 70.652-15.629 102.933-32.98 34.058-18.317 61.918-43.24 81.834-76.624 25.529-42.78 34.867-89.812 36.35-138.904.14-4.309-1.393-7.774-4.026-11.147-7.987-10.275-15.9-20.627-23.562-31.158-16.021-22.007-33.606-42.947-46.073-67.4-.913-1.777-2.396-3.272-3.6-4.917-25.78-35.17-48.957-72.01-69.304-110.537-11.945-22.626-22.592-45.94-33.572-69.062-1.305-2.745-1.34-6.268-1.296-9.419.035-2.8.96-5.59 1.555-8.37 11.174-52.986 19.53-106.407 24.772-160.283a1305 1305 0 0 0 6.182-129.114c-.035-16.675-.173-33.338 0-50.013.086-10.15.878-20.298.91-30.446.035-8.115-.383-16.249-1-24.34-1.362-17.833-2.612-35.689-4.556-53.467-2.892-26.319-8.262-52.208-14.786-77.862-.766-2.995-.743-6.201-1.18-10.15 2.505.596 4.104.697 5.443 1.34 4.75 2.318 9.408 4.804 14.1 7.246 100.882 52.422 197.412 111.978 290.43 177.304 23.675 16.62 46.572 34.116 67.331 54.357 15.134 14.753 30.671 29.087 46.076 43.558 1.382 1.305 2.644 3.226 5.919 2.08.167-1.541.72-3.454.539-5.289-1.003-10.53-1.711-21.108-3.376-31.526-4.84-30.314-14.38-59.22-27.07-87.123-20.86-45.862-48.666-87.335-79.608-126.863-34.182-43.645-72.484-83.522-112.237-122.037-7.402-7.169-10.554-14.618-9.857-24.8 1.34-19.455 2.32-38.964 2.613-58.465.72-47.245-1.746-94.312-9.361-141.027-7.507-46.055-20.077-90.498-42.173-131.873-13.31-24.933-29.66-47.729-50.071-67.316-32.685-31.37-71.481-52.03-115.005-64.116-43.947-12.196-88.842-15.785-134.177-14.008-40.292 1.6-80.212 6.83-119.83 14.325-5.997 1.135-11.94 2.61-17.968 3.485-8.204 1.196-15.316-1.313-20.74-7.682-2.373-2.768-4.286-5.93-6.345-8.947-22.963-33.643-47.234-66.273-74.057-96.956-26.86-30.728-55.91-59.083-88.813-83.351-27.69-20.411-57.315-37.144-90.238-47.675-30.66-9.822-62.008-13.232-93.964-9.678-34.444 3.837-66.377 15.595-96.633 32.215-45.073 24.755-83.32 58.093-118.502 95.121-33.137 34.871-63.053 72.43-90.15 112.136-8.857 12.974-19.04 17.318-34.205 13.66-26.117-6.3-52.649-10.632-79.348-13.49-21.413-2.295-42.904-4.289-64.407-5.133-16.62-.662-33.315.565-49.967 1.127-27.364.933-54.21 5.524-80.595 12.66-72.184 19.5-129.16 60.06-169.837 123.092-21.604 33.451-36.51 69.874-47.482 107.96-14.364 49.869-21.51 100.997-24.616 152.675-1.466 24.34-1.397 48.755-2.005 73.138-.086 3.667-.222 7.336-.031 10.992.417 8.27-2.846 14.661-8.46 20.716-17.442 18.766-34.894 37.558-51.503 57.044-42.348 49.7-80.258 102.458-108.927 161.453-13.567 27.929-24.527 56.765-31.685 86.955-8.417 35.522-10.926 71.47-5.433 107.746.346 2.261 1.1 4.456 1.82 7.29 5.324-2.148 7.473-6.233 10.206-9.517 33.529-40.395 68.814-79.224 105.373-116.86a1907 1907 0 0 1 67.984-66.624c63.123-58.868 128.742-114.766 199.357-164.59 14.943-10.542 30.066-20.851 45.156-31.212 2.68-1.835 5.502-3.465 8.383-4.998 1.618-.852 3.476-1.293 6.12-2.238-.236 3.422-.123 5.85-.619 8.158-9.891 46.594-16.845 93.637-22.076 140.975-5.288 47.752-6.875 95.671-8.094 143.628-.411 16.225.26 32.506 1.083 48.731a4191 4191 0 0 0 5.142 83.983c2.23 31.267 6.493 62.301 11.332 93.254 6.357 40.598 14.267 80.9 24.607 120.686 1.743 6.674.654 12.345-2.385 18.636-15.877 32.832-38.82 61.028-58.767 91.18-.452.678-1.013 1.274-1.509 1.916-23.594 30.614-48 60.614-69.534 92.76a38 38 0 0 1-2.195 2.938c-14.56 17.504-29.098 35.046-43.714 52.51-9.937 11.848-19.837 23.73-30.054 35.33-3.633 4.118-4.667 8.35-3.385 13.457.288 1.18.461 2.396.72 3.589 5.32 23.91 12.703 47.135 23.323 69.231 12.265 25.521 28.062 48.666 48.383 68.411 19.4 18.847 41.52 33.98 67.806 46.11m0 0"/>
 <path fill="#fff" d="M805.631 2319.778c-25.454-11.738-47.573-26.872-66.97-45.719-20.325-19.745-36.121-42.89-48.386-68.41-10.62-22.097-18.003-45.322-23.323-69.232-.26-1.193-.43-2.408-.72-3.59-1.285-5.106-.248-9.338 3.384-13.457 10.217-11.6 20.12-23.481 30.043-35.329 14.627-17.464 29.165-35.006 43.726-52.51a37 37 0 0 0 2.195-2.938c21.534-32.146 45.943-62.146 69.534-92.76.498-.642 1.06-1.238 1.512-1.915 19.944-30.153 42.89-58.35 58.764-91.184 3.042-6.288 4.13-11.96 2.388-18.633-10.34-39.785-18.253-80.088-24.61-120.686-4.84-30.953-9.103-61.987-11.33-93.254a4167 4167 0 0 1-5.141-83.983c-.821-16.225-1.498-32.506-1.08-48.731 1.215-47.957 2.802-95.876 8.091-143.628 5.23-47.338 12.184-94.381 22.076-140.975.492-2.305.38-4.736.616-8.158-2.644.945-4.502 1.383-6.12 2.238-2.881 1.533-5.704 3.163-8.383 4.998-15.09 10.36-30.213 20.67-45.154 31.212-70.617 49.824-136.237 105.722-199.356 164.59a1907 1907 0 0 0-67.987 66.624c-36.553 37.636-71.839 76.465-105.373 116.86-2.734 3.284-4.882 7.369-10.206 9.517-.72-2.834-1.469-5.029-1.82-7.29-5.493-36.276-2.984-72.224 5.433-107.746 7.157-30.187 18.118-59.026 31.685-86.955 28.669-58.992 66.578-111.753 108.93-161.45 16.605-19.489 34.058-38.28 51.488-57.047 5.625-6.055 8.889-12.444 8.471-20.716-.19-3.658-.057-7.325.035-10.992.605-24.383.538-48.798 2.002-73.135 3.105-51.68 10.254-102.809 24.619-152.678 10.974-38.086 25.878-74.509 47.481-107.96 40.675-63.033 97.656-103.595 169.835-123.104 26.385-7.124 53.23-11.715 80.595-12.646 16.654-.564 33.355-1.791 49.97-1.129 21.502.844 42.993 2.838 64.407 5.133 26.702 2.858 53.23 7.19 79.348 13.49 15.165 3.658 25.348-.686 34.205-13.66 27.093-39.707 57.013-77.265 90.15-112.136 35.181-37.028 73.428-70.37 118.501-95.121 30.257-16.62 62.19-28.378 96.63-32.215 31.957-3.554 63.305-.144 93.964 9.678 32.924 10.531 62.55 27.264 90.239 47.672 32.9 24.27 61.953 52.626 88.81 83.354 26.826 30.683 51.1 63.313 74.06 96.956 2.059 3.016 3.974 6.179 6.345 8.947 5.424 6.366 12.536 8.878 20.74 7.685 6.028-.878 11.97-2.353 17.968-3.488 39.617-7.495 79.538-12.737 119.83-14.325 45.338-1.777 90.232 1.812 134.18 14.008 43.523 12.087 82.32 32.745 115.004 64.113 20.411 19.587 36.76 42.386 50.071 67.308 22.1 41.386 34.667 85.829 42.17 131.881 7.619 46.721 10.082 93.788 9.362 141.03-.288 19.5-1.268 39.01-2.61 58.465-.697 10.182 2.454 17.631 9.857 24.8 39.75 38.512 78.054 78.392 112.237 122.037 30.942 39.528 58.747 81 79.607 126.863 12.691 27.903 22.234 56.812 27.07 87.123 1.665 10.418 2.374 20.995 3.376 31.526.182 1.835-.374 3.748-.538 5.289-3.276 1.149-4.537-.778-5.92-2.08-15.404-14.471-30.942-28.805-46.076-43.558-20.759-20.241-43.656-37.737-67.33-54.354-93.019-65.33-189.548-124.885-290.43-177.307-4.696-2.442-9.35-4.928-14.1-7.247-1.34-.642-2.938-.743-5.444-1.34.435 3.95.412 7.159 1.18 10.151 6.525 25.654 11.894 51.543 14.786 77.86 1.944 17.78 3.194 35.636 4.557 53.469.616 8.091 1.034 16.225 1 24.34-.032 10.148-.822 20.295-.91 30.446-.16 16.675-.03 33.338 0 50.013.1 43.141-2.017 86.19-6.18 129.114-5.242 53.876-13.6 107.297-24.774 160.283-.596 2.78-1.521 5.57-1.556 8.37-.043 3.151 0 6.674 1.297 9.42 10.98 23.12 21.626 46.432 33.574 69.061 20.345 38.526 43.524 75.364 69.301 110.537 1.204 1.642 2.687 3.14 3.6 4.917 12.467 24.453 30.052 45.39 46.076 67.4 7.662 10.531 15.572 20.872 23.562 31.155 2.633 3.376 4.163 6.841 4.027 11.15-1.486 49.092-10.824 96.124-36.354 138.904-19.915 33.385-47.775 58.307-81.834 76.623-32.284 17.352-67.008 27.05-102.935 32.982-31.377 5.184-63.019 7.287-94.77 7.19-35.401-.116-70.71-2.276-105.837-6.799-22.974-2.967-45.929-6.222-68.86-9.597-11.813-1.743-20.319 2.252-26.788 12.4-11.58 18.184-23.418 36.219-35.718 53.92-22.332 32.145-47.23 62.2-75.326 89.518-29.39 28.557-61.705 52.983-99.658 69.243-29.22 12.524-59.735 18.838-91.532 17.464-28.739-1.238-56.192-8.563-82.577-19.918-32.405-13.927-61.446-33.304-88.799-55.345-38.828-31.259-72.847-67.32-104.428-105.724-12.674-15.39-24.72-31.28-37.063-46.94-1.757-2.241-3.422-4.569-5.3-6.697-6.155-6.965-13.624-9.575-22.986-7.818a1213 1213 0 0 1-45.75 7.582c-31.405 4.614-62.897 8.35-94.663 9.304-15.843.486-31.705 1.319-47.54.901-54.852-1.452-108.612-8.877-159.323-31.492-1.114-.495-2.183-1.08-4.107-2.016m455.975-1123.342c-8.808-1.429-17.717-2.44-26.416-4.41a199 199 0 0 1-24.519-7.29c-7.232-2.656-14.243-5.998-21.12-9.498-18.621-9.45-34.53-22.698-49.44-37.074-4.637 1.239-8.517 2.339-12.431 3.318-14.662 3.679-29.626 5.931-44.67 5.289-27.578-1.17-53.807-7.956-77.997-21.739-1.936-1.103-4.298-1.483-7.1-2.408-1.936 4.367-3.78 7.944-5.142 11.703-7.864 21.794-16.303 43.409-23.268 65.496-25.96 82.295-39.923 166.74-43.691 252.884a1037 1037 0 0 0 .832 107.274c2.296 38.212 6.346 76.173 12.79 113.893 15.756 91.981 43.29 180.16 85.428 263.604 38.085 75.41 85.973 143.594 147.34 202.035 44.57 42.444 94.2 77.392 150.21 103.069 79.665 36.512 163.12 49.103 249.915 37.725 61.67-8.077 119.066-29.107 172.637-60.622 46.243-27.197 87.393-60.717 124.23-99.704a700 700 0 0 0 54.03-64.485c34.983-47.3 63.617-98.26 87.168-152.11 21.727-49.689 38.673-100.96 51.243-153.722 10-41.98 17.179-84.412 21.736-127.336 3.86-36.409 5.49-72.933 5.839-109.526.1-10.554-.72-21.108-.876-31.662-.588-38.279-4.165-76.298-9.373-114.205-5.378-39.122-12.896-77.84-23.392-115.895-6.821-24.662-14.82-49.01-22.54-73.428-1.037-3.275-1.36-7.391-6.199-9.44-22.075 4.86-45.061 5.692-67.725 1.948-42.216 59.925-98.485 90.126-171.17 79.515-72.352-10.554-118.258-55.031-142.093-123.937-5.488 2.408-10.235 4.545-15.028 6.581-37.232 15.877-75.433 18.813-114.469 7.945-24.233-6.752-45.96-18.42-65.156-34.759-2.687-2.296-4.848-5.59-9.485-5.478-1.498 2.148-3.226 4.378-4.701 6.772a190.7 190.7 0 0 1-30.562 37.886c-21.85 20.973-47.346 35.565-76.188 44.523-21.646 6.718-43.834 8.472-68.644 7.268m0 0"/>
 <path fill="#747274" d="M1262.756 1196.522c23.663 1.115 45.851-.64 67.5-7.357 28.837-8.958 54.332-23.55 76.189-44.523a190.7 190.7 0 0 0 30.559-37.886c1.469-2.397 3.203-4.624 4.698-6.772 4.637-.116 6.797 3.182 9.488 5.478 19.192 16.338 40.92 28.007 65.156 34.759 39.035 10.868 77.236 7.932 114.469-7.945 4.793-2.036 9.54-4.176 15.03-6.581 23.833 68.903 69.736 113.383 142.09 123.937 72.685 10.611 128.958-19.587 171.17-79.515 22.664 3.744 45.662 2.912 67.726-1.947 4.84 2.045 5.162 6.164 6.196 9.439 7.72 24.418 15.721 48.766 22.542 73.428 10.497 38.054 18.015 76.773 23.39 115.895 5.213 37.907 8.788 75.926 9.373 114.205.158 10.554.979 21.108.878 31.662-.346 36.59-1.979 73.114-5.839 109.526-4.556 42.924-11.735 85.354-21.738 127.336-12.568 52.758-29.513 104.033-51.244 153.721-23.547 53.85-52.182 104.811-87.165 152.114a700 700 0 0 1-54.029 64.482c-36.84 38.987-77.988 72.507-124.234 99.701-53.57 31.518-110.966 52.548-172.637 60.636-86.796 11.367-170.249-1.215-249.914-37.736-56.007-25.677-105.64-60.625-150.207-103.069-61.368-58.441-109.255-126.624-147.34-202.035-42.141-83.444-69.673-171.623-85.426-263.607-6.447-37.705-10.496-75.678-12.792-113.89a1037 1037 0 0 1-.835-107.274c3.773-86.143 17.734-170.59 43.693-252.884 6.965-22.076 15.402-43.702 23.268-65.496 1.363-3.759 3.206-7.336 5.142-11.703 2.803.922 5.165 1.305 7.1 2.408 24.19 13.783 50.42 20.567 77.997 21.739 15.045.642 30.009-1.61 44.67-5.277 3.918-.991 7.798-2.094 12.432-3.33 14.91 14.38 30.821 27.624 49.44 37.072 6.876 3.502 13.884 6.844 21.12 9.5a199 199 0 0 0 24.518 7.29c8.7 1.97 17.609 2.981 27.566 4.499m265.555 961.15c0-5.289-.518-10.644.135-15.843 1.1-8.831 2.014-17.867 4.667-26.296 6.63-21.038 19.794-38.189 35.544-53.118a360 360 0 0 1 44.457-35.928c2.68-1.835 5.3-3.79 7.778-5.896 23.423-19.939 36.034-45.252 34.271-76.073-2.126-37.276-20.952-64.845-54.818-80.278-34.565-15.756-67.402-10.209-97.25 13.149-3.128 2.454-6.233 4.954-9.439 7.495-4.076-3.341-7.46-6.233-10.96-8.978-38.774-30.481-95.596-27.489-129.7 14.909-37.357 46.447-21.748 110.085 25.753 138.239 6.28 3.724 12.671 7.38 18.455 11.78 14.264 10.869 27.422 22.964 36.712 38.581 4.37 7.325 8.353 14.887 12.325 22.44 5.974 11.34 8.9 23.221 8.742 36.273-.452 37.008-.173 74.027-.147 111.032 0 3.659-.046 7.337.288 10.97.355 3.836 2.345 5.864 6.193 6.414 2.803.395 5.672.426 8.506.426 14.65.046 29.289.081 43.927 0 14.368-.066 14.526-.224 14.547-14.154.046-30.907.028-61.83.028-95.156m-231.392-651.625c2.126-16.067.844-27.609-4.243-35.677-2.823 3.059-5.415 6.098-8.238 8.92-15.503 15.463-40.358 18.848-59.813 8.216-19.544-10.687-29.41-33.114-24.472-55 2.517-11.147 8.008-20.318 16.66-27.7 2.005-1.712 5.292-2.576 4.572-6.931-2.115-.53-4.379-1.262-6.683-1.642-4.018-.654-8.045-1.42-12.086-1.556-55.527-1.785-102.775 41.398-103.697 97.734-.596 36.435 15.267 65.542 45.909 85.256 31.1 20.005 64.177 22.041 97.486 5.378 30.884-15.448 48.743-40.877 54.605-76.995m510.166-62.448c1.63-4.58 2.834-9.373 5.006-13.682 1.993-3.938 4.951-7.394 7.642-10.949 2.8-3.724 7.572-5.715 9.85-9.966-1.238-.97-1.774-1.734-2.448-1.881-36.524-8.002-67.996 2.373-93.39 28.724-28.758 29.841-35.588 71.99-18.262 109.705 16.384 35.645 52.85 59.614 94.018 57.903 30.395-1.262 55.541-14.368 74.466-38.483 17.464-22.266 23.677-47.695 20.209-75.62-.472-3.748-.539-3.737-4.591-9.408-1.585 1.958-3.071 3.836-4.6 5.66-6.156 7.36-13.763 12.602-22.958 15.404-35.395 10.822-66.832-16.17-65.53-48.023.104-2.43.227-4.873.588-9.384m0 0"/>
 <path fill="#ffb36d" d="M1528.311 2158.887c0 32.111.029 63.033 0 93.94-.029 13.93-.181 14.077-14.546 14.155-14.642.069-29.28.034-43.927 0-2.837 0-5.706-.032-8.51-.426-3.847-.55-5.838-2.587-6.192-6.415-.334-3.632-.288-7.314-.288-10.969-.029-37.008-.305-74.028.144-111.033.158-13.051-2.765-24.945-8.74-36.276-3.974-7.547-7.958-15.111-12.325-22.436-9.292-15.618-22.447-27.71-36.714-38.58-5.796-4.402-12.173-8.058-18.452-11.782-47.505-28.153-63.111-91.803-25.757-138.239 34.104-42.4 90.927-45.401 129.7-14.909 3.5 2.745 6.885 5.637 10.958 8.979 3.212-2.544 6.317-5.041 9.445-7.495 29.85-23.358 62.684-28.906 97.25-13.153 33.862 15.44 52.69 43.006 54.815 80.282 1.766 30.82-10.848 56.134-34.275 76.072-2.471 2.103-5.098 4.062-7.771 5.897a360 360 0 0 0-44.457 35.927c-15.765 14.93-28.92 32.08-35.545 53.119-2.653 8.428-3.566 17.464-4.666 26.298-.657 5.197-.127 10.552-.138 17.044zm0 0"/>
 <path fill="#010101" d="M1296.826 1507.092c-5.772 35.076-23.631 60.504-54.515 75.952-33.304 16.664-66.383 14.627-97.483-5.378-30.643-19.713-46.508-48.823-45.912-85.255.922-56.336 48.17-99.52 103.696-97.734 4.042.135 8.069.902 12.087 1.555 2.304.38 4.568 1.112 6.682 1.642.72 4.356-2.563 5.22-4.568 6.93-8.653 7.383-14.143 16.552-16.663 27.702-4.94 21.886 4.925 44.31 24.472 55 19.455 10.631 44.31 7.247 59.815-8.216 2.823-2.823 5.416-5.861 8.239-8.92 5.084 8.065 6.365 19.61 4.147 36.725m510.134-62.448c-.236 3.465-.36 5.905-.46 8.339-1.305 31.852 30.129 58.848 65.53 48.02 9.191-2.8 16.799-8.042 22.957-15.402 1.527-1.823 3.01-3.701 4.597-5.66 4.053 5.672 4.12 5.66 4.592 9.408 3.465 27.926-2.745 53.354-20.21 75.623-18.924 24.11-44.07 37.218-74.46 38.48-41.173 1.711-77.639-22.257-94.017-57.903-17.332-37.714-10.502-79.863 18.262-109.705 25.388-26.35 56.86-36.725 93.384-28.724.674.144 1.216.91 2.451 1.878-2.281 4.255-7.054 6.245-9.85 9.958-2.694 3.566-5.652 7.023-7.646 10.96-2.171 4.31-3.375 9.103-5.127 14.728m0 0"/>
</svg>
